<svg id="ticket" xmlns="http://www.w3.org/2000/svg" viewBox="0 0 68.432 62.032">
  <g id="Group_5" data-name="Group 5" transform="translate(24.48 0)">
    <g id="Group_4" data-name="Group 4">
      <path id="Path_11" data-name="Path 11" d="M226.1,56.31h-1.309a1.989,1.989,0,0,1,0-3.977H226.1a1.013,1.013,0,0,0,1.013-1.013V45.243A1.013,1.013,0,0,0,226.1,44.23h-1.309a1.991,1.991,0,0,1-1.989-1.989v-.368l1.486-1.361a1.013,1.013,0,0,0,.085-1.406l-3.954-4.615a1.013,1.013,0,0,0-1.428-.11l-.994.852a1.989,1.989,0,1,1-2.588-3.02l.994-.852a1.013,1.013,0,0,0,.11-1.428l-3.954-4.615a1.013,1.013,0,0,0-1.428-.11l-.994.852a1.988,1.988,0,0,1-2.8-.216L206,24.294a1.013,1.013,0,0,0-1.428-.11L187.064,39.19h-2.892a1.013,1.013,0,1,0,0,2.026h36.6v1.025a4.019,4.019,0,0,0,4.014,4.014h.3v4.051h-.3a4.014,4.014,0,0,0,0,8.029h.3v4.051h-.3a4.019,4.019,0,0,0-4.014,4.014v2.3h-7a1.013,1.013,0,1,0,0,2.026h8.017a1.013,1.013,0,0,0,1.013-1.013V66.4a1.991,1.991,0,0,1,1.989-1.988H226.1a1.013,1.013,0,0,0,1.013-1.013V57.323A1.013,1.013,0,0,0,226.1,56.31Zm-35.92-17.12,14.948-12.807.667.779a4.014,4.014,0,0,0,5.66.437l.225-.193,2.636,3.076-.225.193a4.014,4.014,0,0,0,5.224,6.1l.225-.193,2.238,2.612Z" transform="translate(-183.159 -23.941)"/>
    </g>
  </g>
  <g id="Group_7" data-name="Group 7" transform="translate(0 15.249)">
    <g id="Group_6" data-name="Group 6">
      <path id="Path_12" data-name="Path 12" d="M46.2,167.539H6.337v-1.025A4.019,4.019,0,0,0,2.322,162.5h-.3v-4.051h.3a4.014,4.014,0,1,0,0-8.029h-.3v-4.051h.3a4.019,4.019,0,0,0,4.014-4.014v-2.3H17.9a1.013,1.013,0,1,0,0-2.026H5.324a1.013,1.013,0,0,0-1.013,1.013v3.309a1.991,1.991,0,0,1-1.989,1.989H1.013A1.013,1.013,0,0,0,0,145.355v6.077a1.013,1.013,0,0,0,1.013,1.013H2.322a1.989,1.989,0,1,1,0,3.977H1.013A1.013,1.013,0,0,0,0,157.435v6.077a1.013,1.013,0,0,0,1.013,1.013H2.322a1.991,1.991,0,0,1,1.989,1.989v.548L2.879,168.2a1.012,1.012,0,0,0-.14,1.453l3.954,4.615a1.013,1.013,0,0,0,1.428.11l.994-.852a1.988,1.988,0,0,1,2.8.216,1.991,1.991,0,0,1-.216,2.8l-.994.852a1.013,1.013,0,0,0-.11,1.428l3.954,4.615a1.013,1.013,0,0,0,1.428.11l.994-.852a1.988,1.988,0,0,1,2.8.216l1.326,1.548a1.013,1.013,0,0,0,1.428.11l17.482-14.979.028-.026H46.2a1.013,1.013,0,0,0,0-2.026ZM21.986,182.373l-.667-.779a4.015,4.015,0,0,0-5.66-.437l-.225.193L12.8,178.274l.225-.193a4.014,4.014,0,0,0-5.224-6.1l-.225.193-2.238-2.612h31.6Z" transform="translate(0 -138.031)"/>
    </g>
  </g>
  <g id="Group_9" data-name="Group 9" transform="translate(10.228 19.998)">
    <g id="Group_8" data-name="Group 8">
      <path id="Path_13" data-name="Path 13" d="M123.487,173.562H94.631a1.013,1.013,0,0,0,0,2.026h27.842v17.985H78.549V175.588h8.34a1.013,1.013,0,1,0,0-2.026H77.536a1.013,1.013,0,0,0-1.013,1.013v20.011a1.013,1.013,0,0,0,1.013,1.013h45.951a1.013,1.013,0,0,0,1.013-1.013V174.575A1.013,1.013,0,0,0,123.487,173.562Z" transform="translate(-76.523 -173.562)"/>
    </g>
  </g>
  <g id="Group_11" data-name="Group 11" transform="translate(14.804 26.582)">
    <g id="Group_10" data-name="Group 10">
      <path id="Path_14" data-name="Path 14" d="M116.9,222.827H111.3c-.37,0-.542.4-.542.767,0,.423.2.78.542.78h1.944v7.578c0,.357.423.542.86.542s.86-.185.86-.542v-7.578H116.9c.344,0,.542-.37.542-.78C117.441,223.224,117.269,222.827,116.9,222.827Z" transform="translate(-110.762 -222.827)"/>
    </g>
  </g>
  <g id="Group_13" data-name="Group 13" transform="translate(22.422 26.582)">
    <g id="Group_12" data-name="Group 12">
      <path id="Path_15" data-name="Path 15" d="M168.615,222.827c-.436,0-.86.159-.86.529v8.6c0,.357.423.542.86.542s.86-.185.86-.542v-8.6C169.474,222.986,169.038,222.827,168.615,222.827Z" transform="translate(-167.755 -222.827)"/>
    </g>
  </g>
  <g id="Group_15" data-name="Group 15" transform="translate(25.635 26.582)">
    <g id="Group_14" data-name="Group 14">
      <path id="Path_16" data-name="Path 16" d="M197.129,229.107c-.45,0-.82.132-.846.542-.04.555-.145,1.415-1.349,1.415-.912,0-1.415-.489-1.415-1.521v-3.69c0-1.032.5-1.521,1.389-1.521a1.226,1.226,0,0,1,1.375,1.309c.013.4.37.542.86.542.582,0,.86-.159.86-.846,0-1.534-1.309-2.513-3.148-2.513a2.758,2.758,0,0,0-3.055,3.029v3.69a2.749,2.749,0,0,0,3.042,3.029c1.851,0,3.161-1.018,3.161-2.619C198,229.279,197.724,229.107,197.129,229.107Z" transform="translate(-191.799 -222.825)"/>
    </g>
  </g>
  <g id="Group_17" data-name="Group 17" transform="translate(33.001 26.582)">
    <g id="Group_16" data-name="Group 16">
      <path id="Path_17" data-name="Path 17" d="M253.363,231.4l-2.883-4.391,2.367-2.962a.51.51,0,0,0,.106-.331,1.072,1.072,0,0,0-.992-.886.546.546,0,0,0-.476.251l-2.857,3.888v-3.61c0-.37-.436-.529-.86-.529s-.86.159-.86.529h0v8.6c0,.357.423.542.86.542s.86-.185.86-.542V229.36l.714-.9,2.486,3.769a.671.671,0,0,0,.6.331,1.047,1.047,0,0,0,1.031-.86A.515.515,0,0,0,253.363,231.4Z" transform="translate(-246.909 -222.827)"/>
    </g>
  </g>
  <g id="Group_19" data-name="Group 19" transform="translate(40.301 26.582)">
    <g id="Group_18" data-name="Group 18">
      <path id="Path_18" data-name="Path 18" d="M306.987,230.986h-3.743v-2.658h2.01a.6.6,0,0,0,.542-.661c0-.357-.2-.688-.542-.688h-2.01v-2.645h3.743c.344,0,.542-.357.542-.767,0-.357-.172-.741-.542-.741h-4.708c-.384,0-.754.185-.754.542v8.583c0,.357.37.542.754.542h4.708c.37,0,.542-.383.542-.741C307.529,231.343,307.331,230.986,306.987,230.986Z" transform="translate(-301.525 -222.826)"/>
    </g>
  </g>
  <g id="Group_21" data-name="Group 21" transform="translate(46.675 26.582)">
    <g id="Group_20" data-name="Group 20">
      <path id="Path_19" data-name="Path 19" d="M355.352,222.827h-5.594c-.37,0-.542.4-.542.767,0,.423.2.78.542.78H351.7v7.578c0,.357.423.542.859.542s.86-.185.86-.542v-7.578h1.931c.344,0,.542-.37.542-.78C355.895,223.224,355.723,222.827,355.352,222.827Z" transform="translate(-349.216 -222.827)"/>
    </g>
  </g>
</svg>
